<svg width="24" height="25" viewBox="0 0 24 25" fill="none" xmlns="http://www.w3.org/2000/svg">
<path d="M2.75 3.75L4.83 4.11L5.793 15.583C5.82999 16.0345 6.03584 16.4554 6.36948 16.7618C6.70312 17.0682 7.14002 17.2375 7.593 17.236H18.503C18.9367 17.2365 19.3561 17.0803 19.6838 16.7963C20.0116 16.5122 20.2258 16.1194 20.287 15.69L21.237 9.132C21.2623 8.95759 21.253 8.7799 21.2096 8.60909C21.1662 8.43828 21.0896 8.2777 20.9841 8.13653C20.8786 7.99536 20.7463 7.87637 20.5947 7.78637C20.4432 7.69637 20.2754 7.63711 20.101 7.612C20.037 7.605 5.164 7.6 5.164 7.6" stroke="white" stroke-width="1.5" stroke-linecap="round" stroke-linejoin="round"/>
<path d="M14.125 11.295H16.898" stroke="white" stroke-width="1.5" stroke-linecap="round" stroke-linejoin="round"/>
<path fill-rule="evenodd" clip-rule="evenodd" d="M7.15401 20.703C7.22735 20.6999 7.30056 20.7116 7.36924 20.7375C7.43793 20.7634 7.50066 20.8029 7.55366 20.8537C7.60667 20.9045 7.64885 20.9655 7.67766 21.033C7.70648 21.1005 7.72133 21.1731 7.72133 21.2465C7.72133 21.3199 7.70648 21.3926 7.67766 21.4601C7.64885 21.5276 7.60667 21.5886 7.55366 21.6393C7.50066 21.6901 7.43793 21.7296 7.36924 21.7555C7.30056 21.7814 7.22735 21.7932 7.15401 21.79C7.0139 21.784 6.88152 21.7241 6.78451 21.6228C6.68749 21.5216 6.63333 21.3868 6.63333 21.2465C6.63333 21.1063 6.68749 20.9715 6.78451 20.8702C6.88152 20.7689 7.0139 20.709 7.15401 20.703Z" fill="white" stroke="white" stroke-width="1.5" stroke-linecap="round" stroke-linejoin="round"/>
<path fill-rule="evenodd" clip-rule="evenodd" d="M18.435 20.703C18.5795 20.703 18.7181 20.7604 18.8204 20.8626C18.9226 20.9648 18.98 21.1035 18.98 21.248C18.98 21.3925 18.9226 21.5312 18.8204 21.6334C18.7181 21.7356 18.5795 21.793 18.435 21.793C18.2904 21.793 18.1518 21.7356 18.0496 21.6334C17.9474 21.5312 17.89 21.3925 17.89 21.248C17.89 21.1035 17.9474 20.9648 18.0496 20.8626C18.1518 20.7604 18.2904 20.703 18.435 20.703Z" fill="white" stroke="white" stroke-width="1.5" stroke-linecap="round" stroke-linejoin="round"/>
</svg>
