<svg width="16" height="20" viewBox="0 0 16 20" fill="none" xmlns="http://www.w3.org/2000/svg">
<path fill-rule="evenodd" clip-rule="evenodd" d="M7.98626 13.0671C4.44059 13.0671 1.41376 13.6034 1.41376 15.7502C1.41376 17.8971 4.42134 18.4526 7.98626 18.4526C11.531 18.4526 14.5588 17.9154 14.5588 15.7695C14.5588 13.6236 11.5503 13.0671 7.98626 13.0671V13.0671Z" stroke="#272343" stroke-width="1.5" stroke-linecap="round" stroke-linejoin="round"/>
<path fill-rule="evenodd" clip-rule="evenodd" d="M7.98628 10.0056C8.81953 10.0056 9.63407 9.7585 10.3269 9.29557C11.0197 8.83264 11.5597 8.17466 11.8786 7.40484C12.1975 6.63501 12.2809 5.78792 12.1183 4.97068C11.9558 4.15343 11.5545 3.40275 10.9653 2.81355C10.3761 2.22435 9.62544 1.8231 8.8082 1.66054C7.99095 1.49798 7.14386 1.58142 6.37403 1.90029C5.60421 2.21916 4.94623 2.75915 4.4833 3.45197C4.02037 4.1448 3.77328 4.95934 3.77328 5.79259C3.76938 6.9059 4.20785 7.97518 4.99224 8.76524C5.77663 9.55531 6.84272 10.0015 7.95603 10.0056H7.98628Z" stroke="#272343" stroke-width="1.429" stroke-linecap="round" stroke-linejoin="round"/>
</svg>
