<svg width="20" height="19" viewBox="0 0 20 19" fill="none" xmlns="http://www.w3.org/2000/svg">
<path d="M1.52084 0.979248L3.42751 1.30925L4.31026 11.8262C4.34417 12.24 4.53287 12.6259 4.8387 12.9067C5.14454 13.1876 5.54503 13.3428 5.96026 13.3414H15.9611C16.3587 13.3419 16.7431 13.1987 17.0435 12.9383C17.344 12.678 17.5403 12.3179 17.5964 11.9242L18.4673 5.91275C18.4905 5.75287 18.4819 5.58999 18.4422 5.43341C18.4024 5.27684 18.3321 5.12964 18.2354 5.00023C18.1387 4.87083 18.0174 4.76175 17.8785 4.67925C17.7396 4.59675 17.5858 4.54244 17.4259 4.51941C17.3673 4.513 3.73368 4.50841 3.73368 4.50841" stroke="#272343" stroke-width="1.5" stroke-linecap="round" stroke-linejoin="round"/>
<path d="M11.9479 7.89551H14.4899" stroke="#272343" stroke-width="1.5" stroke-linecap="round" stroke-linejoin="round"/>
<path fill-rule="evenodd" clip-rule="evenodd" d="M5.55786 16.5195C5.62508 16.5166 5.69219 16.5274 5.75515 16.5511C5.81811 16.5748 5.87562 16.6111 5.9242 16.6576C5.97279 16.7042 6.01145 16.7601 6.03787 16.822C6.06428 16.8838 6.0779 16.9504 6.0779 17.0177C6.0779 17.085 6.06428 17.1516 6.03787 17.2135C6.01145 17.2754 5.97279 17.3313 5.9242 17.3778C5.87562 17.4243 5.81811 17.4606 5.75515 17.4843C5.69219 17.5081 5.62508 17.5188 5.55786 17.5159C5.42942 17.5104 5.30808 17.4555 5.21914 17.3627C5.13021 17.2699 5.08057 17.1463 5.08057 17.0177C5.08057 16.8892 5.13021 16.7656 5.21914 16.6727C5.30808 16.5799 5.42942 16.525 5.55786 16.5195Z" fill="#272343" stroke="#272343" stroke-width="1.5" stroke-linecap="round" stroke-linejoin="round"/>
<path fill-rule="evenodd" clip-rule="evenodd" d="M15.8988 16.5195C16.0312 16.5195 16.1583 16.5722 16.252 16.6659C16.3457 16.7595 16.3983 16.8866 16.3983 17.0191C16.3983 17.1516 16.3457 17.2787 16.252 17.3724C16.1583 17.4661 16.0312 17.5187 15.8988 17.5187C15.7663 17.5187 15.6392 17.4661 15.5455 17.3724C15.4518 17.2787 15.3992 17.1516 15.3992 17.0191C15.3992 16.8866 15.4518 16.7595 15.5455 16.6659C15.6392 16.5722 15.7663 16.5195 15.8988 16.5195Z" fill="#272343" stroke="#272343" stroke-width="1.5" stroke-linecap="round" stroke-linejoin="round"/>
</svg>
